<svg width="6" height="6" viewBox="0 0 6 6" fill="none" xmlns="http://www.w3.org/2000/svg">
<path d="M5.34109 6C5.16634 6 4.99875 5.9266 4.87518 5.79595C4.75161 5.6653 4.68219 5.4881 4.68219 5.30333V1.81134C4.68219 1.70072 4.64072 1.59461 4.56686 1.51626C4.493 1.43791 4.39279 1.39371 4.28816 1.39334H1.71316C1.6083 1.39334 1.50775 1.43738 1.43361 1.51577C1.35946 1.59416 1.31781 1.70048 1.31781 1.81134V5.30333C1.31781 5.4881 1.24839 5.6653 1.12482 5.79595C1.00125 5.9266 0.833659 6 0.658906 6C0.484154 6 0.316558 5.9266 0.192989 5.79595C0.0694202 5.6653 0 5.4881 0 5.30333V1.81134C0 1.33094 0.180493 0.870223 0.501772 0.530531C0.823051 0.190838 1.2588 0 1.71316 0H4.28816C4.74229 0.000369351 5.1777 0.19137 5.49869 0.531022C5.81969 0.870674 6 1.33119 6 1.81134V5.30333C6 5.4881 5.93058 5.6653 5.80701 5.79595C5.68344 5.9266 5.51585 6 5.34109 6Z" fill="white"/>
</svg>
