<svg width="32" height="32" viewBox="0 0 32 32" fill="none" xmlns="http://www.w3.org/2000/svg">
<path d="M26.2871 14.9999C26.1385 15 25.9936 14.9557 25.8728 14.8732L16.5684 7.53089C16.2414 7.30701 15.7557 7.30593 15.4376 7.52708L15.4322 7.53089L6.12831 14.8732C6.0521 14.9251 5.96589 14.9622 5.87463 14.9824C5.78336 15.0026 5.68882 15.0054 5.5964 14.9908C5.50398 14.9761 5.41549 14.9443 5.33599 14.897C5.25649 14.8498 5.18753 14.7881 5.13304 14.7154C5.07856 14.6427 5.03962 14.5606 5.01845 14.4735C4.99728 14.3865 4.9943 14.2964 5.00966 14.2083C5.02503 14.1202 5.05845 14.0358 5.10802 13.96C5.15758 13.8843 5.22232 13.8185 5.29854 13.7666L14.6007 6.4262C15.4205 5.85821 16.5713 5.85766 17.4005 6.4262L26.7026 13.7674C26.8252 13.8513 26.9168 13.9701 26.9641 14.1068C27.0114 14.2435 27.012 14.3909 26.9658 14.5279C26.9196 14.6649 26.829 14.7844 26.7071 14.8693C26.5851 14.9541 26.4381 14.9998 26.2871 14.9999Z" fill="white"/>
<path d="M21.8865 25H10.113C9.55264 24.999 9.01554 24.7764 8.61945 24.381C8.22336 23.9856 8.0006 23.4496 8 22.8906L8.00283 15.7055C8.00283 15.5184 8.07733 15.3389 8.20995 15.2066C8.34257 15.0743 8.52243 15 8.70998 15C8.89753 15 9.0774 15.0743 9.21002 15.2066C9.34263 15.3389 9.41714 15.5184 9.41714 15.7055L9.41431 22.8903C9.41453 23.0754 9.48837 23.2529 9.61962 23.3838C9.75087 23.5147 9.92881 23.5883 10.1144 23.5884H21.8865C22.0718 23.5881 22.2495 23.5144 22.3806 23.3836C22.5116 23.2528 22.5854 23.0755 22.5857 22.8906V15.7063C22.5857 15.5192 22.6602 15.3398 22.7928 15.2075C22.9254 15.0752 23.1053 15.0008 23.2928 15.0008C23.4804 15.0008 23.6603 15.0752 23.7929 15.2075C23.9255 15.3398 24 15.5192 24 15.7063V22.8906C23.9994 23.4497 23.7766 23.9858 23.3803 24.3812C22.9841 24.7766 22.4469 24.9992 21.8865 25Z" fill="white"/>
<path d="M18.3411 23C18.1663 23 17.9987 22.9266 17.8752 22.796C17.7516 22.6653 17.6822 22.4881 17.6822 22.3033V18.8113C17.6822 18.7007 17.6407 18.5946 17.5669 18.5163C17.493 18.4379 17.3928 18.3937 17.2882 18.3933H14.7132C14.6083 18.3933 14.5077 18.4374 14.4336 18.5158C14.3595 18.5942 14.3178 18.7005 14.3178 18.8113V22.3033C14.3178 22.4881 14.2484 22.6653 14.1248 22.796C14.0013 22.9266 13.8337 23 13.6589 23C13.4842 23 13.3166 22.9266 13.193 22.796C13.0694 22.6653 13 22.4881 13 22.3033V18.8113C13 18.3309 13.1805 17.8702 13.5018 17.5305C13.8231 17.1908 14.2588 17 14.7132 17H17.2882C17.7423 17.0004 18.1777 17.1914 18.4987 17.531C18.8197 17.8707 19 18.3312 19 18.8113V22.3033C19 22.4881 18.9306 22.6653 18.807 22.796C18.6834 22.9266 18.5158 23 18.3411 23Z" fill="white"/>
</svg>
