<svg width="32" height="32" viewBox="0 0 32 32" fill="none" xmlns="http://www.w3.org/2000/svg">
<path d="M25.2191 5.77914C23.2203 3.78501 18.2504 5.73346 13.6603 10.313C13.0327 10.9392 12.4535 11.5842 11.9148 12.2346L11.9094 12.2157L5.59801 14.1212L9.22914 17.744L13.2239 21.7349L16.8551 25.3577L18.7649 19.0582L18.7487 19.0528C19.4006 18.518 20.0471 17.9375 20.6748 17.3113C25.2649 12.7344 27.2178 7.77597 25.2191 5.77914ZM10.541 14.0755C10.11 14.7178 9.73286 15.3548 9.4177 15.9783L8.21361 14.7769L10.541 14.0755ZM16.2005 22.7481L14.9964 21.5468C15.6213 21.2323 16.2624 20.8561 16.9035 20.4261L16.2005 22.7481ZM13.9593 20.5121L10.4521 17.013C11.3006 15.1693 12.7714 13.1537 14.6408 11.2912C18.808 7.13365 23.0452 5.56683 24.2412 6.7574C25.4372 7.95065 23.8641 12.1781 19.6969 16.3357C17.8571 18.1713 15.791 19.6709 13.9593 20.5121ZM10.7834 20.2353C10.708 20.1573 10.6272 20.0875 10.541 20.0203C9.91065 19.5204 9.09176 19.3565 8.29172 19.5661C7.45128 19.7865 6.7563 20.3938 6.43036 21.192L5 26L9.75441 24.5971L9.81906 24.5729C10.6191 24.2477 11.2279 23.5544 11.4488 22.7159C11.6589 21.9204 11.4919 21.1033 10.9935 20.4745C10.9289 20.3885 10.8561 20.3078 10.7834 20.2353ZM10.11 22.3638C10.0022 22.7723 9.71131 23.1136 9.32611 23.2802L7.05261 23.9521L7.72604 21.6865C7.89305 21.3022 8.23516 21.012 8.6446 20.9045C8.86279 20.848 9.2884 20.797 9.68168 21.106C9.72209 21.1383 9.7625 21.1732 9.8029 21.2162C9.84061 21.2539 9.87563 21.2942 9.90796 21.3345C10.2177 21.7215 10.1666 22.1461 10.11 22.3638Z" fill="black" fill-opacity="0.85"/>
<path d="M18.5 15C17.8306 15 17.2049 14.7404 16.7322 14.2678C16.2596 13.7951 16 13.1667 16 12.5C16 11.8306 16.2596 11.2049 16.7322 10.7322C17.2049 10.2596 17.8333 10 18.5 10C19.1694 10 19.7951 10.2596 20.2678 10.7322C20.7404 11.2049 21 11.8333 21 12.5C21 13.1694 20.7404 13.7951 20.2678 14.2678C19.7951 14.7404 19.1667 15 18.5 15ZM18.5 11.4044C18.2077 11.4044 17.9317 11.5191 17.7268 11.724C17.5191 11.9317 17.4071 12.2049 17.4071 12.4973C17.4071 12.7896 17.5219 13.0656 17.7268 13.2732C18.1393 13.6858 18.8634 13.6858 19.276 13.2732C19.4836 13.0656 19.5956 12.7924 19.5956 12.4973C19.5956 12.2049 19.4809 11.929 19.276 11.724C19.0683 11.5164 18.7923 11.4044 18.5 11.4044Z" fill="black" fill-opacity="0.85"/>
</svg>
