<svg width="32" height="32" viewBox="0 0 32 32" fill="none" xmlns="http://www.w3.org/2000/svg">
<path d="M16 28C13.6266 28 11.3066 27.2962 9.33316 25.9776C7.35977 24.6591 5.8217 22.7849 4.91345 20.5922C4.0052 18.3995 3.76756 15.9867 4.23058 13.6589C4.6936 11.3311 5.83649 9.19295 7.51472 7.51472C9.19295 5.83649 11.3311 4.6936 13.6589 4.23058C15.9867 3.76756 18.3995 4.0052 20.5922 4.91345C22.7849 5.8217 24.6591 7.35977 25.9776 9.33316C27.2962 11.3066 28 13.6266 28 16C28 19.1826 26.7357 22.2348 24.4853 24.4853C22.2348 26.7357 19.1826 28 16 28ZM16 5.4976C13.9228 5.4976 11.8923 6.11356 10.1652 7.26758C8.43807 8.4216 7.09195 10.0618 6.29705 11.9809C5.50215 13.9 5.29417 16.0117 5.69941 18.0489C6.10464 20.0862 7.1049 21.9575 8.57369 23.4263C10.0425 24.8951 11.9138 25.8954 13.9511 26.3006C15.9884 26.7058 18.1 26.4979 20.0191 25.703C21.9382 24.9081 23.5784 23.5619 24.7324 21.8348C25.8864 20.1077 26.5024 18.0772 26.5024 16C26.4973 13.2162 25.3892 10.5478 23.4207 8.57929C21.4522 6.61081 18.7839 5.50268 16 5.4976Z" fill="black" fill-opacity="0.85"/>
<path d="M15.0928 20.9988C14.5473 20.9814 14.0061 20.8845 13.4834 20.7107C13.3925 20.6707 13.3099 20.6108 13.2405 20.5345C13.171 20.4582 13.1163 20.3671 13.0796 20.2668C13.0429 20.1664 13.0249 20.0589 13.0268 19.9507C13.0287 19.8424 13.0504 19.7357 13.0905 19.637C13.1278 19.5374 13.1825 19.4469 13.2517 19.3709C13.3208 19.2949 13.403 19.2349 13.4933 19.1945C13.5837 19.154 13.6804 19.1339 13.7778 19.1352C13.8753 19.1365 13.9715 19.1594 14.0609 19.2023C14.4025 19.295 14.7511 19.3529 15.1023 19.3752C15.7793 19.3895 16.448 19.209 17.043 18.8514C17.8958 18.291 18.592 17.4808 19.0548 16.5102C19.7864 14.9859 20.2854 13.3384 20.5317 11.6341H20.0252C17.4454 11.6341 15.6467 11.6655 14.2976 12.0269C13.6481 12.1706 13.0393 12.485 12.5225 12.9435C12.053 13.4038 11.7225 14.0126 11.5758 14.6876C11.4175 15.4495 11.442 16.2439 11.6468 16.9921C11.7135 17.2563 11.8174 17.5073 11.9545 17.7358C12.015 17.8257 12.0582 17.9285 12.0813 18.0376C12.1044 18.1468 12.1069 18.26 12.0887 18.3703C12.0706 18.4806 12.0321 18.5856 11.9757 18.6787C11.9193 18.7719 11.8462 18.8511 11.7609 18.9117C11.6756 18.9722 11.5799 19.0126 11.4799 19.0305C11.3799 19.0483 11.2776 19.0432 11.1794 19.0155C11.0813 18.9877 10.9893 18.9379 10.9093 18.8691C10.8293 18.8004 10.7629 18.7141 10.7143 18.6157C10.5072 18.2589 10.3478 17.8708 10.241 17.4635C9.94977 16.4179 9.92195 15.3042 10.1605 14.2424C10.3905 13.2517 10.8854 12.3608 11.5805 11.6865C12.2699 11.0687 13.0805 10.6382 13.9473 10.4295C15.4478 10.0262 17.3271 10 20.0015 10H20.6642C21.0312 9.99912 21.3835 10.1592 21.644 10.4452L21.6914 10.4976C21.8086 10.6606 21.8953 10.8479 21.9465 11.0484C21.9977 11.2489 22.0124 11.4587 21.9896 11.6655V11.6917C21.734 13.6668 21.1651 15.5764 20.3092 17.3325C19.7135 18.5522 18.8259 19.5669 17.7436 20.2655C16.9348 20.7667 16.0197 21.0198 15.0928 20.9988Z" fill="black" fill-opacity="0.85"/>
<path d="M10.8042 22H10.7525C10.647 21.9939 10.5439 21.9686 10.449 21.9255C10.3542 21.8824 10.2694 21.8223 10.1997 21.7488C10.1299 21.6753 10.0765 21.5898 10.0426 21.4971C10.0086 21.4044 9.99475 21.3065 10.0018 21.2088C10.113 19.4794 10.9094 17.8489 12.2383 16.6297L12.3315 16.5338C13.1394 15.7584 14.0677 15.099 15.0857 14.5774C15.7117 14.2451 16.4108 14.0484 17.1306 14.002C17.2367 13.9948 17.3433 14.007 17.4442 14.0379C17.5452 14.0688 17.6386 14.1178 17.7192 14.1821C17.7997 14.2465 17.8657 14.3249 17.9135 14.4128C17.9614 14.5008 17.99 14.5967 17.9978 14.6949C18.0056 14.7931 17.9925 14.8918 17.9591 14.9853C17.9258 15.0789 17.8728 15.1654 17.8034 15.24C17.7339 15.3146 17.6492 15.3757 17.5543 15.42C17.4593 15.4643 17.3558 15.4908 17.2497 15.4981C16.7487 15.5359 16.2627 15.675 15.826 15.9056C14.993 16.3478 14.2226 16.8841 13.5326 17.5023L13.4445 17.5982C12.3595 18.5807 11.7081 19.9019 11.617 21.3047C11.5992 21.4918 11.5075 21.6662 11.3594 21.7945C11.2113 21.9228 11.0173 21.996 10.8146 22" fill="black" fill-opacity="0.85"/>
</svg>
