<svg width="32" height="32" viewBox="0 0 32 32" fill="none" xmlns="http://www.w3.org/2000/svg">
<path d="M23.7187 17.165H5.68369C5.17969 17.163 4.93369 16.883 4.94469 16.325C4.94469 15.803 5.19069 15.543 5.68369 15.543H23.7187C24.8947 15.543 25.6637 14.547 25.6637 13.323C25.6337 12.359 24.8947 11.433 23.7187 11.433C23.0427 11.433 22.3947 11.973 21.9867 12.536C21.6887 12.859 21.3407 12.859 20.9437 12.536C20.6037 12.277 20.6037 11.909 20.9437 11.434C21.2604 10.993 21.6769 10.6331 22.1591 10.3835C22.6414 10.134 23.1757 10.0019 23.7187 9.99799C25.6297 9.99799 27.1847 11.605 27.1847 13.581C27.1847 15.557 25.6297 17.165 23.7187 17.165Z" fill="black" fill-opacity="0.85"/>
<path d="M14.5101 13.07H6.70809C6.26109 13.077 6.03809 12.824 6.03809 12.308C6.03809 11.793 6.26109 11.535 6.70809 11.535H14.5101C15.6841 11.535 16.4121 10.577 16.4121 9.39699C16.4031 8.42699 15.6841 7.67899 14.5101 7.67899C13.8341 7.67899 13.2401 8.06899 12.8331 8.61099C12.5531 8.89099 12.2231 8.89099 11.8411 8.61099C11.4591 8.33099 11.4241 7.97799 11.7371 7.54899C12.0614 7.12034 12.4804 6.77253 12.9615 6.53278C13.4426 6.29303 13.9726 6.16784 14.5101 6.16699C15.426 6.16699 16.3046 6.53015 16.9531 7.17686C17.6017 7.82358 17.9674 8.70108 17.9701 9.61699C17.968 10.5333 17.6025 11.4113 16.9539 12.0584C16.3052 12.7056 15.4264 13.069 14.5101 13.069V13.07ZM11.7371 25.45C11.3151 25.028 11.3151 24.663 11.7371 24.354C12.1591 24.046 12.5041 24.046 12.7741 24.354C13.1811 24.895 13.8341 25.449 14.5101 25.449C15.6841 25.449 16.6401 24.559 16.6401 23.381C16.6401 22.201 15.6841 21.243 14.5101 21.243H6.70809C6.26109 21.243 6.03809 20.971 6.03809 20.428C6.03809 19.911 6.26109 19.653 6.70809 19.653H14.5101C16.4181 19.653 18.1881 21.113 18.1881 23.017C18.1881 24.92 17.1821 26.889 14.5101 26.832C13.9725 26.831 13.4424 26.7057 12.9614 26.4658C12.4803 26.2258 12.0613 25.8778 11.7371 25.449V25.45Z" fill="black" fill-opacity="0.85"/>
</svg>
