<?xml version="1.0" standalone="no"?><!DOCTYPE svg PUBLIC "-//W3C//DTD SVG 1.1//EN" "http://www.w3.org/Graphics/SVG/1.1/DTD/svg11.dtd"><svg t="1763450739304" class="icon" viewBox="0 0 1462 1024" version="1.1" xmlns="http://www.w3.org/2000/svg" p-id="2499" xmlns:xlink="http://www.w3.org/1999/xlink" width="285.546875" height="200"><path d="M1459.785143 546.377143c6.290286-119.149714-90.185143-224.036571-216.283429-230.546286-41.764571-2.194286-82.066286 10.24-116.443428 27.209143 0.219429-4.315429 1.170286-7.899429 1.462857-12.214857 8.850286-168.228571-124.196571-317.001143-302.665143-326.217143a335.506286 335.506286 0 0 0-251.830857 95.524571c180.516571 28.891429 322.56 164.352 358.546286 334.262858 16.091429-1.389714 31.305143-2.048 46.518857-1.243429 174.665143 9.069714 312.32 143.579429 321.097143 307.712 89.014857-26.550857 154.770286-102.765714 159.597714-194.486857zM609.865143 704.146286c-1.097143 62.902857 25.6 102.4 69.705143 103.131428 44.836571 0.804571 72.923429-37.741714 74.020571-100.644571 1.097143-62.171429-25.6-99.474286-70.509714-100.205714-44.909714-0.804571-72.118857 35.547429-73.216 97.718857z" p-id="2500"></path><path d="M982.747429 494.957714c-43.373714 0-83.894857 16.457143-118.637715 37.302857 0-5.12 0.731429-8.923429 0.731429-13.385142 0-188.928-145.334857-348.672-330.459429-348.672-153.307429 0-286.354286 111.177143-325.412571 256.804571C88.941714 456.923429 0 568.173714 0 701.001143c0 141.897143 94.72 262.070857 227.766857 281.526857h778.093714c118.564571-11.995429 212.626286-116.516571 212.626286-241.956571 0-133.632-105.618286-245.613714-235.739428-245.613715z m-564.077715 384.512c-81.700571 0-151.113143-58.221714-151.113143-170.203428 0-110.518857 71.606857-174.006857 153.307429-174.006857 41.910857 0 75.922286 20.187429 97.645714 43.300571l-40.521143 50.834286c-15.945143-14.994286-32.548571-26.185143-55.661714-26.185143-41.252571 0-75.922286 38.034286-75.922286 103.058286 0 65.682286 29.622857 104.521143 74.459429 104.521142 25.307429 0 46.299429-13.458286 61.44-30.646857l40.521143 50.029715c-26.038857 32.914286-62.171429 49.298286-104.155429 49.298285z m266.093715 0c-87.478857 0-147.456-64.950857-147.456-173.933714 0-108.982857 59.977143-170.276571 147.456-170.276571 87.552 0 147.529143 62.025143 147.529142 170.276571 0 108.982857-59.245714 173.933714-147.529142 173.933714z m339.894857 56.758857h-128v-26.112c46.299429-43.300571 77.385143-78.409143 77.385143-106.057142 0-17.188571-9.362286-26.843429-23.844572-26.843429-13.019429 0-22.454857 8.923429-31.085714 18.651429l-23.917714-24.649143c18.139429-20.187429 35.474286-29.842286 61.44-29.842286 36.205714 0 60.781714 23.844571 60.781714 60.416 0 32.914286-27.428571 69.485714-55.661714 98.596571 9.435429-1.462857 21.723429-2.194286 30.354285-2.194285h34.011429v38.034285h-1.462857z" p-id="2501"></path></svg>