<?xml version="1.0" standalone="no"?><!DOCTYPE svg PUBLIC "-//W3C//DTD SVG 1.1//EN" "http://www.w3.org/Graphics/SVG/1.1/DTD/svg11.dtd"><svg t="1763451169740" class="icon" viewBox="0 0 1024 1024" version="1.1" xmlns="http://www.w3.org/2000/svg" p-id="12301" xmlns:xlink="http://www.w3.org/1999/xlink" width="200" height="200"><path d="M451.072 454.656H573.44v261.632H451.072zM621.568 305.152h122.368v411.136h-122.368zM280.064 551.936h122.368v164.352H280.064zM62.976 756.224v58.368c0 33.28 27.136 60.416 60.416 60.416H901.12c33.28 0 60.416-27.136 60.416-60.416v-58.368H62.976z m676.352 43.008c0 8.704-7.168 15.36-15.36 15.36H300.032c-8.704 0-15.36-7.168-15.36-15.36 0-8.704 7.168-15.36 15.36-15.36h423.936c8.704 0 15.36 6.656 15.36 15.36zM247.296 242.176H302.08V296.96H247.296zM174.592 261.632H128V193.024c-7.168 12.288-11.776 26.624-11.776 41.984v481.28h58.368V261.632z" p-id="12302"></path><path d="M219.648 211.456h606.208c12.8 0 23.552 10.752 23.552 23.552v481.28h58.368v-481.28c0-45.568-36.864-82.432-82.432-82.432H198.144c-18.432 0-35.328 6.144-48.64 16.384H220.16v42.496z" p-id="12303"></path><path d="M312.32 305.152h94.72v94.72H312.32z" p-id="12304"></path></svg>