<?xml version="1.0" standalone="no"?><!DOCTYPE svg PUBLIC "-//W3C//DTD SVG 1.1//EN" "http://www.w3.org/Graphics/SVG/1.1/DTD/svg11.dtd"><svg t="1763450955489" class="icon" viewBox="0 0 1024 1024" version="1.1" xmlns="http://www.w3.org/2000/svg" p-id="7611" xmlns:xlink="http://www.w3.org/1999/xlink" width="200" height="200"><path d="M447.872 779.648c-1.92 0-3.712-0.128-5.632-0.512-11.136-2.304-20.096-10.368-23.552-21.12l-126.976-386.944-50.816 147.712c-4.224 12.288-15.744 20.48-28.672 20.48H112.256c-8.832 0-16-7.168-16-16v-28.8c0-8.832 7.168-16 16-16h78.208L263.68 265.6c4.224-12.416 15.872-20.608 29.056-20.48 13.056 0.128 24.576 8.576 28.672 20.992l130.304 397.056L528 485.12c4.48-10.624 14.72-17.664 26.112-18.432 11.52-0.64 22.4 5.12 28.16 15.104l45.056 77.952L713.472 314.88c3.84-11.392 13.824-19.584 25.856-20.992 14.208-1.536 27.648 7.168 32.128 20.864l52.096 159.872h89.216c4.224 0 8.32 1.664 11.264 4.736 2.944 2.944 4.736 7.04 4.736 11.264v28.928c0 8.832-7.168 16-16 16h-111.36c-13.184 0-24.832-8.448-28.928-20.992l-31.104-95.488L662.912 642.56c-3.968 11.264-14.08 19.072-25.856 20.224-11.904 1.152-23.296-4.736-29.184-15.104l-47.744-82.816-84.352 196.48c-4.864 11.008-15.744 18.304-27.904 18.304z m0 0" p-id="7612"></path><path d="M135.936 317.952V185.856c0-28.544 23.168-51.712 51.712-51.712h649.728c28.544 0 51.712 23.168 51.712 51.712v132.096c0 4.224 1.664 8.32 4.736 11.264 2.944 2.944 7.04 4.736 11.264 4.736h24.448c8.832 0 16-7.168 16-16V185.856c0-28.672-11.392-56.192-31.616-76.544-20.224-20.352-47.744-31.744-76.416-31.744H187.648c-28.672 0-56.192 11.392-76.416 31.616-20.224 20.224-31.616 47.744-31.616 76.416v132.096c0 8.832 7.168 16 16 16h24.448c8.704 0.128 15.872-6.912 15.872-15.744z m752.512 389.376v131.968c0 28.544-23.168 51.584-51.584 51.584H188.032c-28.544 0-51.584-23.168-51.584-51.584V707.328c0-4.224-1.664-8.32-4.736-11.264-2.944-2.944-7.04-4.736-11.264-4.736H96c-8.832 0-16 7.168-16 16v131.968c0 28.672 11.392 56.064 31.616 76.416 20.224 20.224 47.744 31.616 76.416 31.616h648.832c28.672 0 56.064-11.392 76.288-31.616 20.224-20.224 31.616-47.744 31.616-76.416V707.328c0-8.832-7.168-16-16-16h-24.448c-8.704 0.128-15.872 7.168-15.872 16z m0 0" p-id="7613"></path></svg>